{
  "accessors": [
    {
      "bufferView": 3,
      "componentType": 5126,
      "count": 1002,
      "max": [
        1.9641860723495483,
        1.832341194152832,
        0.7692006230354309
      ],
      "min": [
        -1.9641860723495483,
        -0.01853245496749878,
        -0.8310911655426025
      ],
      "type": "VEC3"
    },
    {
      "bufferView": 3,
      "byteOffset": 12024,
      "componentType": 5126,
      "count": 1002,
      "max": [
        0.9999984502792358,
        0.999781608581543,
        1.0
      ],
      "min": [
        -0.9999984502792358,
        -0.9999911785125732,
        -0.9998815059661865
      ],
      "type": "VEC3"
    },
    {
      "bufferView": 2,
      "componentType": 5126,
      "count": 1002,
      "max": [
        0.9997344613075256,
        0.9997344613075256
      ],
      "min": [
        0.00026553194038569927,
        0.01573491096496582
      ],
      "type": "VEC2"
    },
    {
      "bufferView": 1,
      "componentType": 5125,
      "count": 5052,
      "type": "SCALAR"
    },
    {
      "bufferView": 5,
      "componentType": 5126,
      "count": 22,
      "max": [
        1.0,
        0.987789511680603,
        0.46510037779808044,
        0.0,
        0.10762447118759155,
        1.0,
        0.9985502362251282,
        0.0,
        1.0000001192092896,
        0.9984777569770813,
        1.0,
        0.0,
        0.6868036985397339,
        0.5130980014801025,
        0.7077561020851135,
        1.0
      ],
      "min": [
        -1.0000001192092896,
        -0.9789666533470154,
        -0.9999741315841675,
        0.0,
        -0.9979774951934814,
        -0.9988744854927063,
        -0.2697729766368866,
        0.0,
        -1.0,
        -0.9704074263572693,
        -0.999991238117218,
        0.0,
        -0.2645694613456726,
        -1.5746610164642334,
        -1.7979316711425781,
        1.0
      ],
      "type": "MAT4"
    },
    {
      "bufferView": 0,
      "componentType": 5123,
      "count": 1002,
      "type": "VEC4"
    },
    {
      "bufferView": 4,
      "componentType": 5126,
      "count": 1002,
      "max": [
        1.0,
        0.49717968702316284,
        0.19594892859458923,
        0.14414307475090027
      ],
      "min": [
        0.4470542073249817,
        0.0,
        0.0,
        0.0
      ],
      "type": "VEC4"
    },
    {
      "bufferView": 6,
      "componentType": 5126,
      "count": 24,
      "max": [
        5.208333492279053
      ],
      "min": [
        0.0
      ],
      "type": "SCALAR"
    },
    {
      "bufferView": 8,
      "componentType": 5126,
      "count": 24,
      "max": [
        0.04999163746833801,
        0.2153714895248413,
        -0.9499951004981995,
        0.2261027991771698
      ],
      "min": [
        -0.008908797055482864,
        -0.03838003799319267,
        -0.9740829467773438,
        0.22051149606704712
      ],
      "type": "VEC4"
    },
    {
      "bufferView": 6,
      "byteOffset": 96,
      "componentType": 5126,
      "count": 24,
      "max": [
        5.208333492279053
      ],
      "min": [
        0.0
      ],
      "type": "SCALAR"
    },
    {
      "bufferView": 8,
      "byteOffset": 384,
      "componentType": 5126,
      "count": 24,
      "max": [
        -0.015097045339643955,
        0.0977938175201416,
        -0.2220667153596878,
        0.966447651386261
      ],
      "min": [
        -0.4904116988182068,
        0.0030104261822998524,
        -0.25640183687210083,
        0.8370299935340881
      ],
      "type": "VEC4"
    },
    {
      "bufferView": 6,
      "byteOffset": 192,
      "componentType": 5126,
      "count": 33,
      "max": [
        5.208333492279053
      ],
      "min": [
        0.0
      ],
      "type": "SCALAR"
    },
    {
      "bufferView": 8,
      "byteOffset": 768,
      "componentType": 5126,
      "count": 33,
      "max": [
        0.6699731349945068,
        0.016895702108740807,
        0.03726395592093468,
        0.9989404082298279
      ],
      "min": [
        -0.1069469004869461,
        -0.0026970626786351204,
        0.0276668481528759,
        0.7416772246360779
      ],
      "type": "VEC4"
    },
    {
      "bufferView": 6,
      "byteOffset": 324,
      "componentType": 5126,
      "count": 49,
      "max": [
        5.208333492279053
      ],
      "min": [
        0.0
      ],
      "type": "SCALAR"
    },
    {
      "bufferView": 8,
      "byteOffset": 1296,
      "componentType": 5126,
      "count": 49,
      "max": [
        0.7451282143592834,
        0.012406500987708569,
        0.0481104701757431,
        0.8189289569854736
      ],
      "min": [
        0.5717955231666565,
        0.009520420804619789,
        0.03910616412758827,
        0.665658175945282
      ],
      "type": "VEC4"
    },
    {
      "bufferView": 6,
      "byteOffset": 520,
      "componentType": 5126,
      "count": 49,
      "max": [
        5.208333492279053
      ],
      "min": [
        0.0
      ],
      "type": "SCALAR"
    },
    {
      "bufferView": 8,
      "byteOffset": 2080,
      "componentType": 5126,
      "count": 49,
      "max": [
        -0.13396459817886353,
        0.008304600603878498,
        -0.015238596126437187,
        0.9908518195152283
      ],
      "min": [
        -0.32000866532325745,
        0.003476419486105442,
        -0.015939971432089806,
        0.9472556710243225
      ],
      "type": "VEC4"
    },
    {
      "bufferView": 6,
      "byteOffset": 716,
      "componentType": 5126,
      "count": 49,
      "max": [
        5.208333492279053
      ],
      "min": [
        0.0
      ],
      "type": "SCALAR"
    },
    {
      "bufferView": 8,
      "byteOffset": 2864,
      "componentType": 5126,
      "count": 49,
      "max": [
        -0.17444229125976563,
        0.0015478355344384909,
        -0.004680607933551073,
        0.9846550822257996
      ],
      "min": [
        -0.42008721828460693,
        -0.022782986983656883,
        -0.010944484733045101,
        0.9071316719055176
      ],
      "type": "VEC4"
    },
    {
      "bufferView": 6,
      "byteOffset": 912,
      "componentType": 5126,
      "count": 49,
      "max": [
        5.208333492279053
      ],
      "min": [
        0.0
      ],
      "type": "SCALAR"
    },
    {
      "bufferView": 8,
      "byteOffset": 3648,
      "componentType": 5126,
      "count": 49,
      "max": [
        -0.006781228817999363,
        0.11896086484193802,
        0.04792957380414009,
        0.9999628067016602
      ],
      "min": [
        -0.6462595462799072,
        -0.00344600947573781,
        -0.005331270396709442,
        0.7630991339683533
      ],
      "type": "VEC4"
    },
    {
      "bufferView": 6,
      "byteOffset": 1108,
      "componentType": 5126,
      "count": 24,
      "max": [
        5.208333492279053
      ],
      "min": [
        0.0
      ],
      "type": "SCALAR"
    },
    {
      "bufferView": 8,
      "byteOffset": 4432,
      "componentType": 5126,
      "count": 24,
      "max": [
        -0.6022723317146301,
        0.21737582981586456,
        0.7187656164169312,
        0.3464462459087372
      ],
      "min": [
        -0.6732827425003052,
        0.024881038814783096,
        0.6855587959289551,
        0.17160223424434662
      ],
      "type": "VEC4"
    },
    {
      "bufferView": 6,
      "byteOffset": 1204,
      "componentType": 5126,
      "count": 24,
      "max": [
        5.208333492279053
      ],
      "min": [
        0.0
      ],
      "type": "SCALAR"
    },
    {
      "bufferView": 8,
      "byteOffset": 4816,
      "componentType": 5126,
      "count": 24,
      "max": [
        -0.25866734981536865,
        0.015359398908913136,
        -0.009855582378804684,
        0.9602957367897034
      ],
      "min": [
        -0.27877235412597656,
        -0.10049108415842056,
        -0.4150232970714569,
        0.8664574027061462
      ],
      "type": "VEC4"
    },
    {
      "bufferView": 6,
      "byteOffset": 1300,
      "componentType": 5126,
      "count": 33,
      "max": [
        5.208333492279053
      ],
      "min": [
        0.0
      ],
      "type": "SCALAR"
    },
    {
      "bufferView": 8,
      "byteOffset": 5200,
      "componentType": 5126,
      "count": 33,
      "max": [
        0.020757798105478287,
        -9.288763536119404e-09,
        0.6671477556228638,
        0.995814323425293
      ],
      "min": [
        -0.036416444927453995,
        -0.0918014645576477,
        -0.18016624450683594,
        0.7449254393577576
      ],
      "type": "VEC4"
    },
    {
      "bufferView": 6,
      "byteOffset": 1432,
      "componentType": 5126,
      "count": 33,
      "max": [
        5.208333492279053
      ],
      "min": [
        0.0
      ],
      "type": "SCALAR"
    },
    {
      "bufferView": 8,
      "byteOffset": 5728,
      "componentType": 5126,
      "count": 33,
      "max": [
        -0.2791878879070282,
        -0.5705471634864807,
        -0.2791879177093506,
        0.6496569514274597
      ],
      "min": [
        -0.41770318150520325,
        -0.6496568918228149,
        -0.41770321130752563,
        0.5705471634864807
      ],
      "type": "VEC4"
    },
    {
      "bufferView": 6,
      "byteOffset": 1564,
      "componentType": 5126,
      "count": 60,
      "max": [
        5.208333492279053
      ],
      "min": [
        0.0
      ],
      "type": "SCALAR"
    },
    {
      "bufferView": 7,
      "componentType": 5126,
      "count": 60,
      "max": [
        5.3687230661125795e-08,
        1.164345383644104,
        0.2167971283197403
      ],
      "min": [
        -3.3521040165851446e-08,
        0.3211434781551361,
        -0.13477863371372223
      ],
      "type": "VEC3"
    },
    {
      "bufferView": 6,
      "byteOffset": 1804,
      "componentType": 5126,
      "count": 60,
      "max": [
        5.208333492279053
      ],
      "min": [
        0.0
      ],
      "type": "SCALAR"
    },
    {
      "bufferView": 7,
      "byteOffset": 720,
      "componentType": 5126,
      "count": 60,
      "max": [
        1.1854133674660261e-08,
        0.5518460273742676,
        -0.1663602888584137
      ],
      "min": [
        -4.918227602956904e-08,
        0.07069306075572968,
        -0.2905382513999939
      ],
      "type": "VEC3"
    },
    {
      "bufferView": 6,
      "byteOffset": 2044,
      "componentType": 5126,
      "count": 59,
      "max": [
        5.208333492279053
      ],
      "min": [
        0.0
      ],
      "type": "SCALAR"
    },
    {
      "bufferView": 8,
      "byteOffset": 6256,
      "componentType": 5126,
      "count": 59,
      "max": [
        -0.31465211510658264,
        1.070025064109359e-07,
        5.812857750697731e-08,
        0.949207067489624
      ],
      "min": [
        -0.8324584364891052,
        -6.8975434253104595e-09,
        2.1547537087940327e-08,
        0.5540875196456909
      ],
      "type": "VEC4"
    },
    {
      "bufferView": 6,
      "byteOffset": 2280,
      "componentType": 5126,
      "count": 60,
      "max": [
        5.208333492279053
      ],
      "min": [
        0.0
      ],
      "type": "SCALAR"
    },
    {
      "bufferView": 8,
      "byteOffset": 7200,
      "componentType": 5126,
      "count": 60,
      "max": [
        0.9060695767402649,
        -9.764492858721496e-08,
        0.11533097177743912,
        0.9933079481124878
      ],
      "min": [
        -0.019860928878188133,
        -0.10612387210130692,
        0.0451546311378479,
        0.40710780024528503
      ],
      "type": "VEC4"
    },
    {
      "bufferView": 6,
      "byteOffset": 2520,
      "componentType": 5126,
      "count": 33,
      "max": [
        5.208333492279053
      ],
      "min": [
        0.0
      ],
      "type": "SCALAR"
    },
    {
      "bufferView": 8,
      "byteOffset": 8160,
      "componentType": 5126,
      "count": 33,
      "max": [
        -0.26454582810401917,
        0.6557557582855225,
        0.3686743974685669,
        0.6557555794715881
      ],
      "min": [
        -0.36867445707321167,
        0.6033897995948792,
        0.2645457983016968,
        0.6033896803855896
      ],
      "type": "VEC4"
    },
    {
      "bufferView": 6,
      "byteOffset": 2652,
      "componentType": 5126,
      "count": 60,
      "max": [
        5.208333492279053
      ],
      "min": [
        0.0
      ],
      "type": "SCALAR"
    },
    {
      "bufferView": 7,
      "byteOffset": 1440,
      "componentType": 5126,
      "count": 60,
      "max": [
        -0.027430394664406776,
        1.067842960357666,
        0.21595728397369385
      ],
      "min": [
        -0.02743048034608364,
        0.4938737750053406,
        -0.07838582992553711
      ],
      "type": "VEC3"
    },
    {
      "bufferView": 6,
      "byteOffset": 2892,
      "componentType": 5126,
      "count": 59,
      "max": [
        5.208333492279053
      ],
      "min": [
        0.0
      ],
      "type": "SCALAR"
    },
    {
      "bufferView": 8,
      "byteOffset": 8688,
      "componentType": 5126,
      "count": 59,
      "max": [
        -0.1337917596101761,
        -2.0812362322431e-07,
        1.3324657288649178e-07,
        0.9910094738006592
      ],
      "min": [
        -0.47526684403419495,
        -2.4463699332955e-07,
        -5.266484848220898e-08,
        0.879841685295105
      ],
      "type": "VEC4"
    },
    {
      "bufferView": 6,
      "byteOffset": 3128,
      "componentType": 5126,
      "count": 60,
      "max": [
        5.208333492279053
      ],
      "min": [
        0.0
      ],
      "type": "SCALAR"
    },
    {
      "bufferView": 7,
      "byteOffset": 2160,
      "componentType": 5126,
      "count": 60,
      "max": [
        0.050679806619882584,
        0.6862998604774475,
        -0.20244698226451874
      ],
      "min": [
        0.05067962780594826,
        0.20945465564727783,
        -0.23940345644950867
      ],
      "type": "VEC3"
    },
    {
      "bufferView": 6,
      "byteOffset": 3368,
      "componentType": 5126,
      "count": 60,
      "max": [
        5.208333492279053
      ],
      "min": [
        0.0
      ],
      "type": "SCALAR"
    },
    {
      "bufferView": 8,
      "byteOffset": 9632,
      "componentType": 5126,
      "count": 60,
      "max": [
        0.8874521851539612,
        0.0023618240375071764,
        0.03471885994076729,
        0.9993952512741089
      ],
      "min": [
        -0.04713136702775955,
        -0.03049759939312935,
        0.016610849648714066,
        0.45958957076072693
      ],
      "type": "VEC4"
    },
    {
      "bufferView": 6,
      "byteOffset": 3608,
      "componentType": 5126,
      "count": 24,
      "max": [
        5.208333492279053
      ],
      "min": [
        0.0
      ],
      "type": "SCALAR"
    },
    {
      "bufferView": 8,
      "byteOffset": 10592,
      "componentType": 5126,
      "count": 24,
      "max": [
        0.04999163746833801,
        0.2153714895248413,
        -0.9499951004981995,
        0.2261027991771698
      ],
      "min": [
        -0.008908797055482864,
        -0.03838003799319267,
        -0.9740829467773438,
        0.22051149606704712
      ],
      "type": "VEC4"
    },
    {
      "bufferView": 6,
      "byteOffset": 3704,
      "componentType": 5126,
      "count": 24,
      "max": [
        5.208333492279053
      ],
      "min": [
        0.0
      ],
      "type": "SCALAR"
    },
    {
      "bufferView": 8,
      "byteOffset": 10976,
      "componentType": 5126,
      "count": 24,
      "max": [
        -0.015097045339643955,
        0.0977938175201416,
        -0.2220667153596878,
        0.966447651386261
      ],
      "min": [
        -0.4904116988182068,
        0.0030104261822998524,
        -0.25640183687210083,
        0.8370299935340881
      ],
      "type": "VEC4"
    },
    {
      "bufferView": 6,
      "byteOffset": 3800,
      "componentType": 5126,
      "count": 33,
      "max": [
        5.208333492279053
      ],
      "min": [
        0.0
      ],
      "type": "SCALAR"
    },
    {
      "bufferView": 8,
      "byteOffset": 11360,
      "componentType": 5126,
      "count": 33,
      "max": [
        0.6699731349945068,
        0.016895702108740807,
        0.03726395592093468,
        0.9989404082298279
      ],
      "min": [
        -0.1069469004869461,
        -0.0026970626786351204,
        0.0276668481528759,
        0.7416772246360779
      ],
      "type": "VEC4"
    },
    {
      "bufferView": 6,
      "byteOffset": 3932,
      "componentType": 5126,
      "count": 49,
      "max": [
        5.208333492279053
      ],
      "min": [
        0.0
      ],
      "type": "SCALAR"
    },
    {
      "bufferView": 8,
      "byteOffset": 11888,
      "componentType": 5126,
      "count": 49,
      "max": [
        0.7451282143592834,
        0.012406500987708569,
        0.0481104701757431,
        0.8189289569854736
      ],
      "min": [
        0.5717955231666565,
        0.009520420804619789,
        0.03910616412758827,
        0.665658175945282
      ],
      "type": "VEC4"
    },
    {
      "bufferView": 6,
      "byteOffset": 4128,
      "componentType": 5126,
      "count": 49,
      "max": [
        5.208333492279053
      ],
      "min": [
        0.0
      ],
      "type": "SCALAR"
    },
    {
      "bufferView": 8,
      "byteOffset": 12672,
      "componentType": 5126,
      "count": 49,
      "max": [
        -0.13396459817886353,
        0.008304600603878498,
        -0.015238596126437187,
        0.9908518195152283
      ],
      "min": [
        -0.32000866532325745,
        0.003476419486105442,
        -0.015939971432089806,
        0.9472556710243225
      ],
      "type": "VEC4"
    },
    {
      "bufferView": 6,
      "byteOffset": 4324,
      "componentType": 5126,
      "count": 49,
      "max": [
        5.208333492279053
      ],
      "min": [
        0.0
      ],
      "type": "SCALAR"
    },
    {
      "bufferView": 8,
      "byteOffset": 13456,
      "componentType": 5126,
      "count": 49,
      "max": [
        -0.17444229125976563,
        0.0015478355344384909,
        -0.004680607933551073,
        0.9846550822257996
      ],
      "min": [
        -0.42008721828460693,
        -0.022782986983656883,
        -0.010944484733045101,
        0.9071316719055176
      ],
      "type": "VEC4"
    },
    {
      "bufferView": 6,
      "byteOffset": 4520,
      "componentType": 5126,
      "count": 49,
      "max": [
        5.208333492279053
      ],
      "min": [
        0.0
      ],
      "type": "SCALAR"
    },
    {
      "bufferView": 8,
      "byteOffset": 14240,
      "componentType": 5126,
      "count": 49,
      "max": [
        -0.006781228817999363,
        0.11896086484193802,
        0.04792957380414009,
        0.9999628067016602
      ],
      "min": [
        -0.6462595462799072,
        -0.00344600947573781,
        -0.005331270396709442,
        0.7630991339683533
      ],
      "type": "VEC4"
    },
    {
      "bufferView": 6,
      "byteOffset": 4716,
      "componentType": 5126,
      "count": 24,
      "max": [
        5.208333492279053
      ],
      "min": [
        0.0
      ],
      "type": "SCALAR"
    },
    {
      "bufferView": 8,
      "byteOffset": 15024,
      "componentType": 5126,
      "count": 24,
      "max": [
        -0.6022723317146301,
        0.21737582981586456,
        0.7187656164169312,
        0.3464462459087372
      ],
      "min": [
        -0.6732827425003052,
        0.024881038814783096,
        0.6855587959289551,
        0.17160223424434662
      ],
      "type": "VEC4"
    },
    {
      "bufferView": 6,
      "byteOffset": 4812,
      "componentType": 5126,
      "count": 24,
      "max": [
        5.208333492279053
      ],
      "min": [
        0.0
      ],
      "type": "SCALAR"
    },
    {
      "bufferView": 8,
      "byteOffset": 15408,
      "componentType": 5126,
      "count": 24,
      "max": [
        -0.25866734981536865,
        0.015359398908913136,
        -0.009855582378804684,
        0.9602957367897034
      ],
      "min": [
        -0.27877235412597656,
        -0.10049108415842056,
        -0.4150232970714569,
        0.8664574027061462
      ],
      "type": "VEC4"
    },
    {
      "bufferView": 6,
      "byteOffset": 4908,
      "componentType": 5126,
      "count": 33,
      "max": [
        5.208333492279053
      ],
      "min": [
        0.0
      ],
      "type": "SCALAR"
    },
    {
      "bufferView": 8,
      "byteOffset": 15792,
      "componentType": 5126,
      "count": 33,
      "max": [
        0.020757798105478287,
        -9.288763536119404e-09,
        0.6671477556228638,
        0.995814323425293
      ],
      "min": [
        -0.036416444927453995,
        -0.0918014645576477,
        -0.18016624450683594,
        0.7449254393577576
      ],
      "type": "VEC4"
    },
    {
      "bufferView": 6,
      "byteOffset": 5040,
      "componentType": 5126,
      "count": 33,
      "max": [
        5.208333492279053
      ],
      "min": [
        0.0
      ],
      "type": "SCALAR"
    },
    {
      "bufferView": 8,
      "byteOffset": 16320,
      "componentType": 5126,
      "count": 33,
      "max": [
        -0.2791878879070282,
        -0.5705471634864807,
        -0.2791879177093506,
        0.6496569514274597
      ],
      "min": [
        -0.41770318150520325,
        -0.6496568918228149,
        -0.41770321130752563,
        0.5705471634864807
      ],
      "type": "VEC4"
    },
    {
      "bufferView": 6,
      "byteOffset": 5172,
      "componentType": 5126,
      "count": 60,
      "max": [
        5.208333492279053
      ],
      "min": [
        0.0
      ],
      "type": "SCALAR"
    },
    {
      "bufferView": 7,
      "byteOffset": 2880,
      "componentType": 5126,
      "count": 60,
      "max": [
        5.3687230661125795e-08,
        1.164345383644104,
        0.2167971283197403
      ],
      "min": [
        -3.3521040165851446e-08,
        0.3211434781551361,
        -0.13477863371372223
      ],
      "type": "VEC3"
    },
    {
      "bufferView": 6,
      "byteOffset": 5412,
      "componentType": 5126,
      "count": 60,
      "max": [
        5.208333492279053
      ],
      "min": [
        0.0
      ],
      "type": "SCALAR"
    },
    {
      "bufferView": 7,
      "byteOffset": 3600,
      "componentType": 5126,
      "count": 60,
      "max": [
        1.1854133674660261e-08,
        0.5518460273742676,
        -0.1663602888584137
      ],
      "min": [
        -4.918227602956904e-08,
        0.07069306075572968,
        -0.2905382513999939
      ],
      "type": "VEC3"
    },
    {
      "bufferView": 6,
      "byteOffset": 5652,
      "componentType": 5126,
      "count": 59,
      "max": [
        5.208333492279053
      ],
      "min": [
        0.0
      ],
      "type": "SCALAR"
    },
    {
      "bufferView": 8,
      "byteOffset": 16848,
      "componentType": 5126,
      "count": 59,
      "max": [
        -0.31465211510658264,
        1.070025064109359e-07,
        5.812857750697731e-08,
        0.949207067489624
      ],
      "min": [
        -0.8324584364891052,
        -6.8975434253104595e-09,
        2.1547537087940327e-08,
        0.5540875196456909
      ],
      "type": "VEC4"
    },
    {
      "bufferView": 6,
      "byteOffset": 5888,
      "componentType": 5126,
      "count": 60,
      "max": [
        5.208333492279053
      ],
      "min": [
        0.0
      ],
      "type": "SCALAR"
    },
    {
      "bufferView": 8,
      "byteOffset": 17792,
      "componentType": 5126,
      "count": 60,
      "max": [
        0.9060695767402649,
        -9.764492858721496e-08,
        0.11533097177743912,
        0.9933079481124878
      ],
      "min": [
        -0.019860928878188133,
        -0.10612387210130692,
        0.0451546311378479,
        0.40710780024528503
      ],
      "type": "VEC4"
    },
    {
      "bufferView": 6,
      "byteOffset": 6128,
      "componentType": 5126,
      "count": 33,
      "max": [
        5.208333492279053
      ],
      "min": [
        0.0
      ],
      "type": "SCALAR"
    },
    {
      "bufferView": 8,
      "byteOffset": 18752,
      "componentType": 5126,
      "count": 33,
      "max": [
        -0.26454582810401917,
        0.6557557582855225,
        0.3686743974685669,
        0.6557555794715881
      ],
      "min": [
        -0.36867445707321167,
        0.6033897995948792,
        0.2645457983016968,
        0.6033896803855896
      ],
      "type": "VEC4"
    },
    {
      "bufferView": 6,
      "byteOffset": 6260,
      "componentType": 5126,
      "count": 60,
      "max": [
        5.208333492279053
      ],
      "min": [
        0.0
      ],
      "type": "SCALAR"
    },
    {
      "bufferView": 7,
      "byteOffset": 4320,
      "componentType": 5126,
      "count": 60,
      "max": [
        -0.027430394664406776,
        1.067842960357666,
        0.21595728397369385
      ],
      "min": [
        -0.02743048034608364,
        0.4938737750053406,
        -0.07838582992553711
      ],
      "type": "VEC3"
    },
    {
      "bufferView": 6,
      "byteOffset": 6500,
      "componentType": 5126,
      "count": 59,
      "max": [
        5.208333492279053
      ],
      "min": [
        0.0
      ],
      "type": "SCALAR"
    },
    {
      "bufferView": 8,
      "byteOffset": 19280,
      "componentType": 5126,
      "count": 59,
      "max": [
        -0.1337917596101761,
        -2.0812362322431e-07,
        1.3324657288649178e-07,
        0.9910094738006592
      ],
      "min": [
        -0.47526684403419495,
        -2.4463699332955e-07,
        -5.266484848220898e-08,
        0.879841685295105
      ],
      "type": "VEC4"
    },
    {
      "bufferView": 6,
      "byteOffset": 6736,
      "componentType": 5126,
      "count": 60,
      "max": [
        5.208333492279053
      ],
      "min": [
        0.0
      ],
      "type": "SCALAR"
    },
    {
      "bufferView": 7,
      "byteOffset": 5040,
      "componentType": 5126,
      "count": 60,
      "max": [
        0.050679806619882584,
        0.6862998604774475,
        -0.20244698226451874
      ],
      "min": [
        0.05067962780594826,
        0.20945465564727783,
        -0.23940345644950867
      ],
      "type": "VEC3"
    },
    {
      "bufferView": 6,
      "byteOffset": 6976,
      "componentType": 5126,
      "count": 60,
      "max": [
        5.208333492279053
      ],
      "min": [
        0.0
      ],
      "type": "SCALAR"
    },
    {
      "bufferView": 8,
      "byteOffset": 20224,
      "componentType": 5126,
      "count": 60,
      "max": [
        0.8874521851539612,
        0.0023618240375071764,
        0.03471885994076729,
        0.9993952512741089
      ],
      "min": [
        -0.04713136702775955,
        -0.03049759939312935,
        0.016610849648714066,
        0.45958957076072693
      ],
      "type": "VEC4"
    }
  ],
  "animations": [
    {
      "channels": [
        {
          "sampler": 0,
          "target": {
            "node": 8,
            "path": "rotation"
          }
        },
        {
          "sampler": 1,
          "target": {
            "node": 9,
            "path": "rotation"
          }
        },
        {
          "sampler": 2,
          "target": {
            "node": 10,
            "path": "rotation"
          }
        },
        {
          "sampler": 3,
          "target": {
            "node": 14,
            "path": "rotation"
          }
        },
        {
          "sampler": 4,
          "target": {
            "node": 15,
            "path": "rotation"
          }
        },
        {
          "sampler": 5,
          "target": {
            "node": 16,
            "path": "rotation"
          }
        },
        {
          "sampler": 6,
          "target": {
            "node": 17,
            "path": "rotation"
          }
        },
        {
          "sampler": 7,
          "target": {
            "node": 18,
            "path": "rotation"
          }
        },
        {
          "sampler": 8,
          "target": {
            "node": 19,
            "path": "rotation"
          }
        },
        {
          "sampler": 9,
          "target": {
            "node": 20,
            "path": "rotation"
          }
        },
        {
          "sampler": 10,
          "target": {
            "node": 21,
            "path": "rotation"
          }
        },
        {
          "sampler": 11,
          "target": {
            "node": 22,
            "path": "translation"
          }
        },
        {
          "sampler": 12,
          "target": {
            "node": 23,
            "path": "translation"
          }
        },
        {
          "sampler": 13,
          "target": {
            "node": 23,
            "path": "rotation"
          }
        },
        {
          "sampler": 14,
          "target": {
            "node": 24,
            "path": "rotation"
          }
        },
        {
          "sampler": 15,
          "target": {
            "node": 25,
            "path": "rotation"
          }
        },
        {
          "sampler": 16,
          "target": {
            "node": 26,
            "path": "translation"
          }
        },
        {
          "sampler": 17,
          "target": {
            "node": 26,
            "path": "rotation"
          }
        },
        {
          "sampler": 18,
          "target": {
            "node": 27,
            "path": "translation"
          }
        },
        {
          "sampler": 19,
          "target": {
            "node": 28,
            "path": "rotation"
          }
        }
      ],
      "name": "Animation",
      "samplers": [
        {
          "input": 7,
          "interpolation": "LINEAR",
          "output": 8
        },
        {
          "input": 9,
          "interpolation": "LINEAR",
          "output": 10
        },
        {
          "input": 11,
          "interpolation": "LINEAR",
          "output": 12
        },
        {
          "input": 13,
          "interpolation": "LINEAR",
          "output": 14
        },
        {
          "input": 15,
          "interpolation": "LINEAR",
          "output": 16
        },
        {
          "input": 17,
          "interpolation": "LINEAR",
          "output": 18
        },
        {
          "input": 19,
          "interpolation": "LINEAR",
          "output": 20
        },
        {
          "input": 21,
          "interpolation": "LINEAR",
          "output": 22
        },
        {
          "input": 23,
          "interpolation": "LINEAR",
          "output": 24
        },
        {
          "input": 25,
          "interpolation": "LINEAR",
          "output": 26
        },
        {
          "input": 27,
          "interpolation": "LINEAR",
          "output": 28
        },
        {
          "input": 29,
          "interpolation": "LINEAR",
          "output": 30
        },
        {
          "input": 31,
          "interpolation": "LINEAR",
          "output": 32
        },
        {
          "input": 33,
          "interpolation": "LINEAR",
          "output": 34
        },
        {
          "input": 35,
          "interpolation": "LINEAR",
          "output": 36
        },
        {
          "input": 37,
          "interpolation": "LINEAR",
          "output": 38
        },
        {
          "input": 39,
          "interpolation": "LINEAR",
          "output": 40
        },
        {
          "input": 41,
          "interpolation": "LINEAR",
          "output": 42
        },
        {
          "input": 43,
          "interpolation": "LINEAR",
          "output": 44
        },
        {
          "input": 45,
          "interpolation": "LINEAR",
          "output": 46
        }
      ]
    },
    {
      "channels": [
        {
          "sampler": 0,
          "target": {
            "node": 8,
            "path": "rotation"
          }
        },
        {
          "sampler": 1,
          "target": {
            "node": 9,
            "path": "rotation"
          }
        },
        {
          "sampler": 2,
          "target": {
            "node": 10,
            "path": "rotation"
          }
        },
        {
          "sampler": 3,
          "target": {
            "node": 14,
            "path": "rotation"
          }
        },
        {
          "sampler": 4,
          "target": {
            "node": 15,
            "path": "rotation"
          }
        },
        {
          "sampler": 5,
          "target": {
            "node": 16,
            "path": "rotation"
          }
        },
        {
          "sampler": 6,
          "target": {
            "node": 17,
            "path": "rotation"
          }
        },
        {
          "sampler": 7,
          "target": {
            "node": 18,
            "path": "rotation"
          }
        },
        {
          "sampler": 8,
          "target": {
            "node": 19,
            "path": "rotation"
          }
        },
        {
          "sampler": 9,
          "target": {
            "node": 20,
            "path": "rotation"
          }
        },
        {
          "sampler": 10,
          "target": {
            "node": 21,
            "path": "rotation"
          }
        },
        {
          "sampler": 11,
          "target": {
            "node": 22,
            "path": "translation"
          }
        },
        {
          "sampler": 12,
          "target": {
            "node": 23,
            "path": "translation"
          }
        },
        {
          "sampler": 13,
          "target": {
            "node": 23,
            "path": "rotation"
          }
        },
        {
          "sampler": 14,
          "target": {
            "node": 24,
            "path": "rotation"
          }
        },
        {
          "sampler": 15,
          "target": {
            "node": 25,
            "path": "rotation"
          }
        },
        {
          "sampler": 16,
          "target": {
            "node": 26,
            "path": "translation"
          }
        },
        {
          "sampler": 17,
          "target": {
            "node": 26,
            "path": "rotation"
          }
        },
        {
          "sampler": 18,
          "target": {
            "node": 27,
            "path": "translation"
          }
        },
        {
          "sampler": 19,
          "target": {
            "node": 28,
            "path": "rotation"
          }
        }
      ],
      "name": "ArmatureAction",
      "samplers": [
        {
          "input": 47,
          "interpolation": "LINEAR",
          "output": 48
        },
        {
          "input": 49,
          "interpolation": "LINEAR",
          "output": 50
        },
        {
          "input": 51,
          "interpolation": "LINEAR",
          "output": 52
        },
        {
          "input": 53,
          "interpolation": "LINEAR",
          "output": 54
        },
        {
          "input": 55,
          "interpolation": "LINEAR",
          "output": 56
        },
        {
          "input": 57,
          "interpolation": "LINEAR",
          "output": 58
        },
        {
          "input": 59,
          "interpolation": "LINEAR",
          "output": 60
        },
        {
          "input": 61,
          "interpolation": "LINEAR",
          "output": 62
        },
        {
          "input": 63,
          "interpolation": "LINEAR",
          "output": 64
        },
        {
          "input": 65,
          "interpolation": "LINEAR",
          "output": 66
        },
        {
          "input": 67,
          "interpolation": "LINEAR",
          "output": 68
        },
        {
          "input": 69,
          "interpolation": "LINEAR",
          "output": 70
        },
        {
          "input": 71,
          "interpolation": "LINEAR",
          "output": 72
        },
        {
          "input": 73,
          "interpolation": "LINEAR",
          "output": 74
        },
        {
          "input": 75,
          "interpolation": "LINEAR",
          "output": 76
        },
        {
          "input": 77,
          "interpolation": "LINEAR",
          "output": 78
        },
        {
          "input": 79,
          "interpolation": "LINEAR",
          "output": 80
        },
        {
          "input": 81,
          "interpolation": "LINEAR",
          "output": 82
        },
        {
          "input": 83,
          "interpolation": "LINEAR",
          "output": 84
        },
        {
          "input": 85,
          "interpolation": "LINEAR",
          "output": 86
        }
      ]
    }
  ],
  "asset": {
    "extras": {
      "author": "merlincodes (https://sketchfab.com/merlincodes)",
      "license": "CC-BY-4.0 (http://creativecommons.org/licenses/by/4.0/)",
      "source": "https://sketchfab.com/3d-models/swan-56291f4202ba4d6f8755e71109107651",
      "title": "Swan"
    },
    "generator": "Sketchfab-16.14.0",
    "version": "2.0"
  },
  "bufferViews": [
    {
      "buffer": 0,
      "byteLength": 8016,
      "byteStride": 8,
      "name": "shortBufferViews",
      "target": 34962
    },
    {
      "buffer": 0,
      "byteLength": 20208,
      "byteOffset": 8016,
      "name": "floatBufferViews",
      "target": 34963
    },
    {
      "buffer": 0,
      "byteLength": 8016,
      "byteOffset": 28224,
      "byteStride": 8,
      "name": "floatBufferViews",
      "target": 34962
    },
    {
      "buffer": 0,
      "byteLength": 24048,
      "byteOffset": 36240,
      "byteStride": 12,
      "name": "floatBufferViews",
      "target": 34962
    },
    {
      "buffer": 0,
      "byteLength": 16032,
      "byteOffset": 60288,
      "byteStride": 16,
      "name": "floatBufferViews",
      "target": 34962
    },
    {
      "buffer": 0,
      "byteLength": 1408,
      "byteOffset": 76320,
      "name": "floatBufferViews"
    },
    {
      "buffer": 0,
      "byteLength": 7216,
      "byteOffset": 77728,
      "name": "floatBufferViews"
    },
    {
      "buffer": 0,
      "byteLength": 5760,
      "byteOffset": 84944,
      "byteStride": 12,
      "name": "floatBufferViews"
    },
    {
      "buffer": 0,
      "byteLength": 21184,
      "byteOffset": 90704,
      "byteStride": 16,
      "name": "floatBufferViews"
    }
  ],
  "buffers": [
    {
      "byteLength": 111888,
      "uri": "scene.bin"
    }
  ],
  "images": [
    {
      "uri": "textures/Material_baseColor.png"
    }
  ],
  "materials": [
    {
      "doubleSided": true,
      "name": "Material",
      "pbrMetallicRoughness": {
        "baseColorTexture": {
          "index": 0
        },
        "metallicFactor": 0.0,
        "roughnessFactor": 0.5
      }
    }
  ],
  "meshes": [
    {
      "name": "Object_0",
      "primitives": [
        {
          "attributes": {
            "JOINTS_0": 5,
            "NORMAL": 1,
            "POSITION": 0,
            "TEXCOORD_0": 2,
            "WEIGHTS_0": 6
          },
          "indices": 3,
          "material": 0,
          "mode": 4
        }
      ]
    }
  ],
  "nodes": [
    {
      "children": [
        1
      ],
      "matrix": [
        1.0,
        0.0,
        0.0,
        0.0,
        0.0,
        2.220446049250313e-16,
        -1.0,
        0.0,
        0.0,
        1.0,
        2.220446049250313e-16,
        0.0,
        0.0,
        0.0,
        0.0,
        1.0
      ],
      "name": "Sketchfab_model"
    },
    {
      "children": [
        2
      ],
      "name": "root"
    },
    {
      "children": [
        3
      ],
      "matrix": [
        1.0,
        0.0,
        0.0,
        0.0,
        0.0,
        2.220446049250313e-16,
        1.0,
        0.0,
        0.0,
        -1.0,
        2.220446049250313e-16,
        0.0,
        0.0,
        0.0,
        0.0,
        1.0
      ],
      "name": "GLTF_SceneRootNode"
    },
    {
      "children": [
        4
      ],
      "matrix": [
        1.0,
        0.0,
        0.0,
        0.0,
        0.0,
        1.0,
        0.0,
        0.0,
        0.0,
        0.0,
        1.0,
        0.0,
        0.012261658906936646,
        0.7492749691009521,
        0.026561260223388672,
        1.0
      ],
      "name": "Armature_22"
    },
    {
      "children": [
        5,
        7,
        6
      ],
      "name": "GLTF_created_0"
    },
    {
      "children": [
        8,
        11,
        13,
        18,
        21,
        25
      ],
      "name": "GLTF_created_0_rootJoint"
    },
    {
      "name": "swan_21"
    },
    {
      "mesh": 0,
      "name": "Object_7",
      "skin": 0
    },
    {
      "children": [
        9
      ],
      "name": "Bone.001_2",
      "rotation": [
        -0.008908797986805439,
        -0.038380034267902374,
        -0.9733461141586304,
        0.22593171894550323
      ],
      "scale": [
        1.0,
        1.0000004768371582,
        1.0000001192092896
      ],
      "translation": [
        0.013419542461633682,
        -0.1557323932647705,
        0.06946812570095062
      ]
    },
    {
      "children": [
        10
      ],
      "name": "Bone.002_1",
      "rotation": [
        -0.015097049064934254,
        0.0030104268807917833,
        -0.2564018666744232,
        0.9664477705955505
      ],
      "scale": [
        0.9999998807907104,
        1.0,
        1.0
      ],
      "translation": [
        2.468004822731018e-08,
        0.3337785005569458,
        -3.5740814752216465e-09
      ]
    },
    {
      "name": "Bone.003_0",
      "rotation": [
        0.6699731349945068,
        0.016895702108740807,
        0.0276668481528759,
        0.7416772246360779
      ],
      "translation": [
        1.1204974725842476e-09,
        0.2981119453907013,
        -1.0770914826707667e-08
      ]
    },
    {
      "children": [
        12
      ],
      "name": "Bone.004_4",
      "rotation": [
        -0.7878685593605042,
        0.0,
        0.0,
        0.6158435940742493
      ],
      "translation": [
        0.013419542461633682,
        -0.1557323932647705,
        0.06946812570095062
      ]
    },
    {
      "name": "Bone.005_3",
      "rotation": [
        -0.011183824390172958,
        0.0,
        0.0,
        0.9999374747276306
      ],
      "scale": [
        1.0,
        1.0000001192092896,
        1.0
      ],
      "translation": [
        -1.862645149230957e-09,
        0.7079340219497681,
        0.0
      ]
    },
    {
      "children": [
        14
      ],
      "name": "Bone.006_9",
      "rotation": [
        -0.03353491798043251,
        0.8899332880973816,
        0.4545336663722992,
        0.01712776906788349
      ],
      "scale": [
        0.9999999403953552,
        0.9999995827674866,
        0.9999993443489075
      ],
      "translation": [
        0.013419542461633682,
        -0.1557323932647705,
        0.06946812570095062
      ]
    },
    {
      "children": [
        15
      ],
      "name": "Bone.007_8",
      "rotation": [
        0.5717955231666565,
        0.009520419873297215,
        0.0481104701757431,
        0.8189289569854736
      ],
      "scale": [
        1.0,
        0.9999999403953552,
        1.0000001192092896
      ],
      "translation": [
        -7.450580596923828e-09,
        0.4864938259124756,
        9.233897912963585e-08
      ]
    },
    {
      "children": [
        16
      ],
      "name": "Bone.008_7",
      "rotation": [
        -0.13396459817886353,
        0.003476418787613511,
        -0.015939969569444656,
        0.9908518195152283
      ],
      "scale": [
        0.9999999403953552,
        0.9999999403953552,
        1.0
      ],
      "translation": [
        -2.6775524020195007e-09,
        0.2904423773288727,
        -2.966836731843614e-08
      ]
    },
    {
      "children": [
        17
      ],
      "name": "Bone.009_6",
      "rotation": [
        -0.17444229125976563,
        0.000859968364238739,
        -0.00485437735915184,
        0.9846550822257996
      ],
      "scale": [
        0.9999999403953552,
        1.0,
        0.9999998807907104
      ],
      "translation": [
        9.295035852119327e-10,
        0.36907604336738586,
        2.2561135182286307e-08
      ]
    },
    {
      "name": "Bone.010_5",
      "rotation": [
        -0.6462595462799072,
        -0.003446009010076523,
        -0.004067717120051384,
        0.7630991339683533
      ],
      "scale": [
        1.0,
        0.9999999403953552,
        1.0
      ],
      "translation": [
        -2.3848656383052003e-10,
        0.22590075433254242,
        -8.631132430991784e-08
      ]
    },
    {
      "children": [
        19
      ],
      "name": "Bone.011_12",
      "rotation": [
        -0.6732827425003052,
        0.21737578511238098,
        0.6855587363243103,
        0.171602264046669
      ],
      "scale": [
        1.0,
        1.0000001192092896,
        1.0000001192092896
      ],
      "translation": [
        0.013419542461633682,
        -0.1557323932647705,
        0.06946812570095062
      ]
    },
    {
      "children": [
        20
      ],
      "name": "Bone.012_11",
      "rotation": [
        -0.27838656306266785,
        0.015359397046267986,
        -0.009855581447482109,
        0.9602957367897034
      ],
      "scale": [
        0.9999999403953552,
        0.9999997615814209,
        0.9999998807907104
      ],
      "translation": [
        -2.7939677238464355e-09,
        0.3547040522098541,
        4.901085048913956e-08
      ]
    },
    {
      "name": "Bone.013_10",
      "rotation": [
        0.0002740989439189434,
        -9.366901032592523e-09,
        0.667147696018219,
        0.7449254989624023
      ],
      "scale": [
        0.9999998807907104,
        0.9999999403953552,
        0.9999998807907104
      ],
      "translation": [
        -9.822542779147625e-09,
        0.2951657772064209,
        1.2135387805756181e-08
      ]
    },
    {
      "children": [
        22,
        24
      ],
      "name": "Bone.014_16",
      "rotation": [
        -0.3580220937728882,
        -0.6097705960273743,
        -0.35802215337753296,
        0.6097705960273743
      ],
      "scale": [
        0.9999999403953552,
        0.9999999403953552,
        0.9999999403953552
      ],
      "translation": [
        0.013419542461633682,
        -0.1557323932647705,
        0.06946812570095062
      ]
    },
    {
      "children": [
        23
      ],
      "name": "Bone.018_14",
      "rotation": [
        -0.1753588169813156,
        -6.532618890275899e-09,
        4.190179936358618e-08,
        0.9845046997070313
      ],
      "scale": [
        1.0,
        0.9999999403953552,
        1.0
      ],
      "translation": [
        -1.695654283651038e-08,
        1.164345383644104,
        -0.13477855920791626
      ]
    },
    {
      "name": "Bone.020_13",
      "rotation": [
        -0.31465214490890503,
        2.9243205190709887e-08,
        5.023727212005724e-08,
        0.949207067489624
      ],
      "translation": [
        -9.194684125191088e-09,
        0.5518457889556885,
        -0.1663602888584137
      ]
    },
    {
      "name": "Bone.016_15",
      "rotation": [
        -0.019860902801156044,
        -1.0256820104359576e-07,
        0.11533097177743912,
        0.9931285381317139
      ],
      "translation": [
        3.376289470224947e-09,
        0.445354163646698,
        2.1505037750557676e-09
      ]
    },
    {
      "children": [
        26,
        28
      ],
      "name": "Bone.015_20",
      "rotation": [
        -0.36867445707321167,
        0.6033897995948792,
        0.3686743974685669,
        0.6033896803855896
      ],
      "translation": [
        0.013419542461633682,
        -0.1557323932647705,
        0.06946812570095062
      ]
    },
    {
      "children": [
        27
      ],
      "name": "Bone.022_18",
      "rotation": [
        -0.13379178941249847,
        -2.424445995075075e-07,
        3.273136428560974e-08,
        0.9910094738006592
      ],
      "translation": [
        -0.027430420741438866,
        1.067842960357666,
        -0.07838582247495651
      ]
    },
    {
      "name": "Bone.024_17",
      "rotation": [
        -0.3513319790363312,
        0.02896753139793873,
        -0.18691065907478333,
        0.9169466495513916
      ],
      "translation": [
        0.05067973583936691,
        0.6862998008728027,
        -0.20244719088077545
      ]
    },
    {
      "name": "Bone.017_19",
      "rotation": [
        -0.047131333500146866,
        0.002361822873353958,
        0.03464735671877861,
        0.9982848763465881
      ],
      "scale": [
        0.9999999403953552,
        1.0000001192092896,
        1.0
      ],
      "translation": [
        -2.453385050671386e-09,
        0.43829214572906494,
        -5.030624805613115e-09
      ]
    }
  ],
  "samplers": [
    {
      "magFilter": 9729,
      "minFilter": 9987,
      "wrapS": 10497,
      "wrapT": 10497
    }
  ],
  "scene": 0,
  "scenes": [
    {
      "name": "Sketchfab_Scene",
      "nodes": [
        0
      ]
    }
  ],
  "skins": [
    {
      "inverseBindMatrices": 4,
      "joints": [
        5,
        8,
        9,
        10,
        11,
        12,
        13,
        14,
        15,
        16,
        17,
        18,
        19,
        20,
        21,
        22,
        23,
        24,
        25,
        26,
        27,
        28
      ],
      "skeleton": 5
    }
  ],
  "textures": [
    {
      "sampler": 0,
      "source": 0
    }
  ]
}
